<?xml version="1.0" encoding="utf-8"?>
<!-- Generator: Adobe Illustrator 21.1.0, SVG Export Plug-In . SVG Version: 6.00 Build 0)  -->
<svg version="1.1" id="Layer_1" xmlns="http://www.w3.org/2000/svg" xmlns:xlink="http://www.w3.org/1999/xlink" x="0px" y="0px"
	 viewBox="0 0 681.7 62.2" style="enable-background:new 0 0 681.7 62.2;" xml:space="preserve">
<style type="text/css">
	.st0{fill:#FFFFFF;}
</style>
<g>
	<rect x="123.6" y="0.1" class="st0" width="119.4" height="10"/>
	<rect x="123.7" y="26.2" class="st0" width="119.4" height="10"/>
	<rect x="123.6" y="52.2" class="st0" width="119.3" height="10"/>
	<polyline class="st0" points="20.8,0.2 20.8,55.2 103.4,55.2 103.4,62.2 0,62.2 0,0.2 20.8,0.2 	"/>
	<polyline class="st0" points="283.7,0.2 283.7,31.1 362.8,0.2 389.6,0.2 323.9,25.2 392.3,62.2 366,62.2 309.7,30.8 283.7,40.4 
		283.7,62.2 262.9,62.2 262.9,0.2 283.7,0.2 	"/>
	<path class="st0" d="M482.6,0.2l60.9,62h-22.9l-17.1-18.6h-66l-17.4,18.6h-21.2l60.7-62L482.6,0.2z M497.1,36.6l-26-28.9h-0.5
		l-26.4,28.9H497.1"/>
	<path class="st0" d="M615.5,0.2c3.4,0,6.9,0,10.8,0c3.9,0,7.7,0.1,11.5,0.3c3.8,0.1,7.3,0.4,10.6,0.6c3.3,0.3,6.1,0.7,8.4,1.3
		c5.1,1.2,9.4,2.9,13,5s5.4,4.8,5.4,7.9c0,3.3-2,6.1-6,8.5s-9.7,4.2-17.2,5.3v0.2c9.6,0.8,17,2.6,22.1,5.2c5.1,2.7,7.6,5.9,7.6,9.7
		c0,2.3-1,4.5-3.1,6.6c-2,2.2-5,4-9.1,5.7c-4,1.6-8.9,3-14.8,4c-5.9,1-12.7,1.5-20.4,1.5h-75.4V0h56.6V0.2z M621.2,26.8
		c11.8,0,20.3-0.8,25.4-2.5c5.1-1.7,7.7-4.1,7.7-7.4c0-2.2-0.9-4-2.6-5.2c-1.8-1.3-4.2-2.3-7.2-3s-6.6-1.2-10.6-1.4S625.7,7,621.1,7
		h-41.5v19.7L621.2,26.8L621.2,26.8z M631.7,55.2c9.2,0,16.3-1,21.5-2.9c5.2-2,7.7-4.7,7.7-8.2c0-2-0.9-3.7-2.8-5.1
		c-1.9-1.3-4.4-2.4-7.6-3.2c-3.1-0.8-6.7-1.3-10.8-1.7c-4.1-0.3-8.3-0.5-12.7-0.5h-47.4v21.5h52.1"/>
</g>
</svg>
